<?xml version="1.0" encoding="utf-8"?><svg xmlns="http://www.w3.org/2000/svg" xmlns:xlink="http://www.w3.org/1999/xlink"><symbol viewBox="0 0 14 12" id="left-arrow" xmlns="http://www.w3.org/2000/svg"><path d="M6 11L1 6L6 1" stroke-width="2" stroke-linecap="round" stroke-linejoin="round"/><path d="M13.0001 11L8.00012 6L13.0001 1" stroke-width="2" stroke-linecap="round" stroke-linejoin="round"/></symbol><symbol viewBox="0 0 11 16" id="place_marker" xmlns="http://www.w3.org/2000/svg"><path d="M5.4302 6.51542C6.02989 6.51542 6.51603 6.02928 6.51603 5.42959C6.51603 4.8299 6.02989 4.34375 5.4302 4.34375C4.83051 4.34375 4.34436 4.8299 4.34436 5.42959C4.34436 6.02928 4.83051 6.51542 5.4302 6.51542Z"/><path d="M5.42918 0C2.43567 0 0 2.32946 0 5.19165C0 6.55472 0.621302 8.36738 1.8466 10.5794C2.83064 12.3555 3.96907 13.9615 4.56119 14.7606C4.66124 14.8971 4.79207 15.0082 4.94305 15.0847C5.09403 15.1612 5.26092 15.2011 5.4302 15.2011C5.59947 15.2011 5.76637 15.1612 5.91735 15.0847C6.06833 15.0082 6.19915 14.8971 6.29921 14.7606C6.89031 13.9615 8.02976 12.3555 9.0138 10.5794C10.2371 8.36806 10.8584 6.5554 10.8584 5.19165C10.8584 2.32946 8.42269 0 5.42918 0ZM5.42918 7.60085C4.99966 7.60085 4.57979 7.47349 4.22266 7.23486C3.86553 6.99623 3.58719 6.65706 3.42282 6.26024C3.25845 5.86342 3.21544 5.42677 3.29924 5.00551C3.38303 4.58424 3.58986 4.19729 3.89358 3.89358C4.19729 3.58986 4.58424 3.38303 5.00551 3.29924C5.42677 3.21544 5.86342 3.25845 6.26024 3.42282C6.65706 3.58718 6.99623 3.86553 7.23486 4.22266C7.47349 4.57979 7.60085 4.99966 7.60085 5.42918C7.60022 6.00495 7.37122 6.55696 6.96409 6.96409C6.55696 7.37122 6.00495 7.60022 5.42918 7.60085Z"/></symbol><symbol viewBox="0 0 22 20" id="rating" xmlns="http://www.w3.org/2000/svg"><path d="M10.3829 0.463526C10.5325 0.00287056 11.1843 0.00287008 11.3339 0.463525L13.4403 6.9463C13.5072 7.15232 13.6992 7.2918 13.9158 7.2918H20.7322C21.2166 7.2918 21.418 7.9116 21.0261 8.1963L15.5115 12.2029C15.3363 12.3302 15.263 12.5559 15.3299 12.7619L17.4363 19.2447C17.586 19.7053 17.0587 20.0884 16.6669 19.8037L11.1523 15.7971C10.977 15.6698 10.7397 15.6698 10.5645 15.7971L5.04993 19.8037C4.65807 20.0884 4.13083 19.7053 4.2805 19.2447L6.38689 12.7619C6.45382 12.5559 6.38049 12.3302 6.20525 12.2029L0.69067 8.1963C0.298813 7.9116 0.500201 7.2918 0.984562 7.2918H7.80096C8.01757 7.2918 8.20955 7.15232 8.27649 6.9463L10.3829 0.463526Z"/></symbol><symbol viewBox="0 0 14 12" id="right-arrow" xmlns="http://www.w3.org/2000/svg"><path d="M8.00012 11L13.0001 6L8.00012 1" stroke-width="2" stroke-linecap="round" stroke-linejoin="round"/><path d="M1 11L6 6L1 1" stroke-width="2" stroke-linecap="round" stroke-linejoin="round"/></symbol></svg>